<?xml version="1.0" encoding="UTF-8" standalone="no"?>
<svg width="169px" height="36px" viewBox="0 0 169 36" version="1.1" xmlns="http://www.w3.org/2000/svg" xmlns:xlink="http://www.w3.org/1999/xlink" xmlns:sketch="http://www.bohemiancoding.com/sketch/ns">
    <!-- Generator: Sketch 3.5.2 (25235) - http://www.bohemiancoding.com/sketch -->
    <title>OneFlow logo new Copy</title>
    <desc>Created with Sketch.</desc>
    <defs>
        <path id="path-1" d="M0,0.115120879 L168.209802,0.115120879 L168.209802,36 L0,36 L0,0.115120879 Z"></path>
    </defs>
    <g id="Page-1" stroke="none" stroke-width="1" fill="none" fill-rule="evenodd" sketch:type="MSPage">
        <g id="OneFlow-1440" sketch:type="MSArtboardGroup" transform="translate(-50.000000, -15318.000000)">
            <g id="Footer-v2" sketch:type="MSLayerGroup" transform="translate(49.000000, 15318.000000)">
                <g id="OneFlow-logo-new-Copy" transform="translate(1.000000, 0.000000)">
                    <path d="M56.8453451,24.6632044 C60.9422242,24.6632044 62.9297407,20.9318637 62.9297407,18.0273363 C62.9297407,15.0919516 60.9422242,11.3305451 56.7832352,11.3305451 C52.7785319,11.3305451 50.6066637,14.7552923 50.6066637,17.9351604 C50.6066637,21.4212264 52.9613011,24.6632044 56.8453451,24.6632044 M56.7531692,6.25414945 C63.7253011,6.25414945 68.7103121,11.6972703 68.7103121,17.9964791 C68.7103121,24.2956879 63.755367,29.7388088 56.7227077,29.7388088 C49.5978725,29.7388088 44.8276747,24.0816659 44.8276747,18.2718198 C44.8276747,16.7736659 45.0409055,15.0919516 45.7138286,13.4403033 C46.907367,10.5045231 50.4234989,6.25414945 56.7531692,6.25414945" id="Fill-1" fill="#FC3F1E" sketch:type="MSShapeGroup"></path>
                    <path d="M69.7793934,12.339178 L74.5191297,12.339178 L74.5191297,14.1435297 L74.5796571,14.1435297 C75.0998769,13.3179033 76.170778,11.7584308 79.1987341,11.7584308 C80.8183385,11.7584308 82.6226901,12.4305626 83.5408879,13.2261231 C84.4575033,14.0208923 85.4979429,15.3663429 85.4979429,18.6997055 L85.4979429,29.3106066 L80.420756,29.3106066 L80.420756,20.0447604 C80.420756,18.8524088 80.420756,16.5286286 77.7603165,16.5286286 C74.8549978,16.5286286 74.8549978,19.0363648 74.8549978,20.0760132 L74.8549978,29.3106066 L69.7793934,29.3106066 L69.7793934,12.339178 Z" id="Fill-3" fill="#FC3F1E" sketch:type="MSShapeGroup"></path>
                    <path d="M99.1353363,18.9447033 C98.9205231,17.9351209 97.9117319,16.0393846 95.2817538,16.0393846 C92.6533582,16.0393846 91.642589,17.9351209 91.4297538,18.9447033 L99.1353363,18.9447033 Z M103.630193,23.9902418 C102.804567,25.885978 101.612611,27.3536703 100.174193,28.3323956 C98.7678198,29.3407912 97.0861055,29.8614066 95.3438637,29.8614066 C90.4810945,29.8614066 86.3541495,25.916044 86.3541495,20.8705055 C86.3541495,16.1307692 90.0835121,11.7585495 95.2512923,11.7585495 C100.419468,11.7585495 104.210941,15.8562198 104.210941,21.0236044 C104.210941,21.6965275 104.150413,21.9718681 104.088303,22.3694505 L91.367644,22.3694505 C91.674633,24.3878242 93.3563473,25.5805714 95.3438637,25.5805714 C96.9029407,25.5805714 97.7289626,24.8771868 98.4319516,23.9902418 L103.630193,23.9902418 Z" id="Fill-5" fill="#FC3F1E" sketch:type="MSShapeGroup"></path>
                    <path d="M105.402541,6.6819956 L117.755684,6.6819956 L117.755684,11.7583912 L110.936255,11.7583912 L110.936255,15.6111824 L117.510804,15.6111824 L117.510804,20.6879736 L110.936255,20.6879736 L110.936255,29.3109626 L105.402541,29.3109626 L105.402541,6.6819956 Z" id="Fill-7" fill="#FC3F1E" sketch:type="MSShapeGroup"></path>
                    <mask id="mask-2" sketch:name="Clip 10" fill="white">
                        <use xlink:href="#path-1"></use>
                    </mask>
                    <g id="Clip-10"></g>
                    <path d="M118.826901,6.68215385 L123.902505,6.68215385 L123.902505,29.3111209 L118.826901,29.3111209 L118.826901,6.68215385 Z" id="Fill-9" fill="#FC3F1E" sketch:type="MSShapeGroup" mask="url(#mask-2)"></path>
                    <path d="M134.085442,25.0911692 C136.287771,25.0911692 138.152255,23.2868176 138.152255,20.8095429 C138.152255,18.3330593 136.287771,16.5287077 134.085442,16.5287077 C131.883112,16.5287077 130.018629,18.3330593 130.018629,20.8095429 C130.018629,23.2868176 131.883112,25.0911692 134.085442,25.0911692 M134.085442,11.7885758 C140.262013,11.7885758 143.227859,16.6509495 143.227859,20.8095429 C143.227859,24.9685319 140.262013,29.8301143 134.085442,29.8301143 C127.90887,29.8301143 124.941046,24.9685319 124.941046,20.8095429 C124.941046,16.6509495 127.90887,11.7885758 134.085442,11.7885758" id="Fill-11" fill="#FC3F1E" sketch:type="MSShapeGroup" mask="url(#mask-2)"></path>
                    <path d="M147.905644,12.339178 L150.443446,22.889156 L150.505556,22.889156 L153.288633,12.339178 L157.568281,12.339178 L160.381424,22.889156 L160.443534,22.889156 L162.981336,12.339178 L168.209644,12.339178 L163.011798,29.3106066 L158.30371,29.3106066 L155.458523,18.3329802 L155.398391,18.3329802 L152.553204,29.3106066 L147.845116,29.3106066 L142.64727,12.339178 L147.905644,12.339178 Z" id="Fill-12" fill="#FC3F1E" sketch:type="MSShapeGroup" mask="url(#mask-2)"></path>
                    <path d="M0,23.8289143 L0,25.2823648 C0,31.2013978 4.79868132,36.0000791 10.7177143,36.0000791 L12.1711648,36.0000791 C6.41235165,34.1431121 1.85696703,29.5877275 0,23.8289143" id="Fill-13" fill="#FC3F1E" sketch:type="MSShapeGroup" mask="url(#mask-2)"></path>
                    <path d="M35.8847604,12.2862857 L35.8847604,10.8332308 C35.8847604,4.9138022 31.0860791,0.115120879 25.1670462,0.115120879 L23.7128044,0.115120879 C29.4720132,1.97208791 34.0277934,6.52747253 35.8847604,12.2862857" id="Fill-14" fill="#FC3F1E" sketch:type="MSShapeGroup" mask="url(#mask-2)"></path>
                    <path d="M17.9423604,29.7041538 C11.5205143,29.7041538 6.29576703,24.4794066 6.29576703,18.0575604 C6.29576703,11.6357143 11.5205143,6.41136264 17.9423604,6.41136264 C24.3642066,6.41136264 29.5889538,11.6357143 29.5889538,18.0575604 C29.5889538,24.4794066 24.3642066,29.7041538 17.9423604,29.7041538 M17.9423604,4.52828571 C10.4824484,4.52828571 4.41269011,10.5976484 4.41269011,18.0575604 C4.41269011,25.5174725 10.4824484,31.5868352 17.9423604,31.5868352 C25.4022725,31.5868352 31.4720308,25.5174725 31.4720308,18.0575604 C31.4720308,10.5976484 25.4022725,4.52828571 17.9423604,4.52828571" id="Fill-15" fill="#FC3F1E" sketch:type="MSShapeGroup" mask="url(#mask-2)"></path>
                    <path d="M12.1717582,0.115318681 L10.7179121,0.115318681 C4.79848352,0.115318681 -0.000197802198,4.914 -0.000197802198,10.833033 L-0.000197802198,12.2864835 C1.85676923,6.52767033 6.41254945,1.97189011 12.1717582,0.115318681" id="Fill-16" fill="#FC3F1E" sketch:type="MSShapeGroup" mask="url(#mask-2)"></path>
                    <path d="M17.9423604,8.10146374 C12.4521626,8.10146374 7.98578901,12.5678374 7.98578901,18.0576396 C7.98578901,23.5478374 12.4521626,28.014211 17.9423604,28.014211 C23.4325582,28.014211 27.8989319,23.5478374 27.8989319,18.0576396 C27.8989319,12.5678374 23.4325582,8.10146374 17.9423604,8.10146374" id="Fill-17" fill="#FC3F1E" sketch:type="MSShapeGroup" mask="url(#mask-2)"></path>
                    <path d="M17.9423604,33.2771736 C9.55000879,33.2771736 2.72266813,26.449833 2.72266813,18.0574813 C2.72266813,9.66592088 9.55000879,2.83818462 17.9423604,2.83818462 C26.3347121,2.83818462 33.1620527,9.66592088 33.1620527,18.0574813 C33.1620527,26.449833 26.3347121,33.2771736 17.9423604,33.2771736 M17.9423604,0.898536264 C8.48069011,0.898536264 0.78301978,8.59620659 0.78301978,18.0574813 C0.78301978,27.5191516 8.48069011,35.216822 17.9423604,35.216822 C27.4040308,35.216822 35.1017011,27.5191516 35.1017011,18.0574813 C35.1017011,8.59620659 27.4040308,0.898536264 17.9423604,0.898536264" id="Fill-18" fill="#FC3F1E" sketch:type="MSShapeGroup" mask="url(#mask-2)"></path>
                    <path d="M23.7134374,36 L25.1668879,36 C31.0863165,36 35.8846022,31.2013187 35.8846022,25.2822857 L35.8846022,23.8288352 C34.0280308,29.5876484 29.4722505,34.1434286 23.7134374,36" id="Fill-19" fill="#FC3F1E" sketch:type="MSShapeGroup" mask="url(#mask-2)"></path>
                </g>
            </g>
        </g>
    </g>
</svg>